<?xml version="1.0" encoding="UTF-8" standalone="no"?>
<svg
   xmlns:dc="http://purl.org/dc/elements/1.1/"
   xmlns:cc="http://creativecommons.org/ns#"
   xmlns:rdf="http://www.w3.org/1999/02/22-rdf-syntax-ns#"
   xmlns:svg="http://www.w3.org/2000/svg"
   xmlns="http://www.w3.org/2000/svg"
   xmlns:sodipodi="http://sodipodi.sourceforge.net/DTD/sodipodi-0.dtd"
   xmlns:inkscape="http://www.inkscape.org/namespaces/inkscape"
   version="1.1"
   id="svg2"
   xml:space="preserve"
  width="624.50665" height="400" viewBox="0 0 624.50665 450"
   sodipodi:docname="calendar-schedule-business-publicdomainvectors.org.eps"><metadata
     id="metadata8"><rdf:RDF><cc:Work
         rdf:about=""><dc:format>image/svg+xml</dc:format><dc:type
           rdf:resource="http://purl.org/dc/dcmitype/StillImage" /></cc:Work></rdf:RDF></metadata><defs
     id="defs6" /><sodipodi:namedview
     pagecolor="#ffffff"
     bordercolor="#666666"
     borderopacity="1"
     objecttolerance="10"
     gridtolerance="10"
     guidetolerance="10"
     inkscape:pageopacity="0"
     inkscape:pageshadow="2"
     inkscape:window-width="640"
     inkscape:window-height="480"
     id="namedview4" />
     <g
              inkscape:groupmode="layer"
              inkscape:label="ink_ext_XXXXXX"
              transform="matrix(1.3333333,0,0,-1.3333333,0,588.72)"
            >
              <g transform="scale(0.1)">
                <path
                  d="m 2407.42,4415.43 c 1160.13,0 2100.6,-940.47 2100.6,-2100.61 0,-458.68 -147.1,-882.97 -396.61,-1228.43 H 703.445 c -249.492,345.46 -396.613,769.75 -396.613,1228.43 0,1160.14 940.458,2100.61 2100.588,2100.61"
                  style="
                    fill: #fff9ef;
                    fill-opacity: 1;
                    fill-rule: evenodd;
                    stroke: none;
                  "
                />
                <path
                  d="m 2407.42,1004.82 c 1253.76,0 2276.35,36.64 2276.35,81.57 0,44.93 -1022.59,81.57 -2276.35,81.57 -1253.73,0 -2276.307,-36.64 -2276.307,-81.57 0,-44.93 1022.577,-81.57 2276.307,-81.57"
                  style="
                    fill: #fef0d3;
                    fill-opacity: 1;
                    fill-rule: evenodd;
                    stroke: none;
                  "
                />
                <path
                  d="M 4101.91,3739.64 H 1294.16 l 384.25,-2653.25 h 2807.71 l -384.21,2653.25"
                  style="
                    fill: #fbc6a4;
                    fill-opacity: 1;
                    fill-rule: evenodd;
                    stroke: none;
                  "
                />
                <path
                  d="M 1294.16,3739.64 H 4101.91 L 3717.67,1086.39 H 909.945 l 384.215,2653.25"
                  style="
                    fill: #fef0d3;
                    fill-opacity: 1;
                    fill-rule: evenodd;
                    stroke: none;
                  "
                />
                <path
                  d="M 1294.16,3739.64 H 4101.91 L 4043.7,3337.66 H 1235.96 l 58.2,401.98"
                  style="
                    fill: #f89b7c;
                    fill-opacity: 1;
                    fill-rule: evenodd;
                    stroke: none;
                  "
                />
                <path
                  d="m 3142.78,2748.72 c 94.9,0 189.53,0 284.42,0 -11.57,-80.15 -23.18,-160.29 -34.75,-239.98 -94.89,0 -189.53,0 -284.14,0 11.3,79.69 22.9,160.06 34.47,239.98 z m 316.76,-337.01 c 94.9,0 189.53,0 284.42,0 -11.57,-79.93 -23.14,-159.83 -34.72,-239.99 -94.64,0 -189.54,0 -284.17,0 11.61,80.16 23.18,160.06 34.47,239.99 z m -365.27,0 c 94.61,0 189.23,0 284.13,0 -11.57,-79.93 -23.14,-159.83 -34.75,-239.99 -94.63,0 -189.52,0 -284.15,0 11.62,80.16 23.18,160.06 34.77,239.99 z m 316.76,-337.01 c 94.6,0 189.52,0 284.14,0 -11.57,-79.94 -23.15,-159.85 -34.71,-239.77 -94.63,0 -189.52,0 -284.14,0 11.56,79.92 23.14,159.83 34.71,239.77 z m -365.57,0 c 94.63,0 189.51,0 284.15,0 -11.57,-79.94 -23.15,-159.85 -34.72,-239.77 -94.63,0 -189.53,0 -284.15,0 11.57,79.92 23.14,159.83 34.72,239.77 z m 511.68,1010.82 c 94.9,0 189.25,0 284.42,0 -11.6,-80.15 -23.18,-160.08 -34.75,-239.99 -95.18,0 -189.52,0 -284.43,0 11.58,80.16 23.15,159.84 34.76,239.99 z m -365.56,0.21 c 94.9,0 189.51,0 284.42,-0.21 -11.62,-80.15 -23.18,-159.83 -34.76,-239.99 -94.89,0 -189.52,0.22 -284.41,0.22 11.58,79.94 23.14,159.62 34.75,239.98 z m 316.76,-337.22 c 94.91,0 189.52,0 284.41,0 -11.57,-79.94 -23.16,-160.08 -34.75,-239.99 -94.89,0 -189.51,0.22 -284.42,0.22 11.59,79.69 23.19,159.83 34.76,239.77 v 0"
                  style="
                    fill: #f89b7c;
                    fill-opacity: 1;
                    fill-rule: evenodd;
                    stroke: none;
                  "
                />
                <path
                  d="m 2411.93,2748.72 c 94.92,0 189.53,0 284.43,0 -11.58,-79.92 -23.2,-160.05 -34.77,-239.98 -94.89,0 -189.5,0 -284.41,0 11.57,79.93 23.18,160.06 34.75,239.98 z m -365.55,0 c 94.89,0 189.51,0 284.41,0 -11.58,-79.92 -23.18,-160.05 -34.75,-239.98 -94.91,0 -189.52,0 -284.42,0 11.58,79.93 23.18,160.06 34.76,239.98 z m -730.85,0 c 94.63,0 189.54,0 284.15,0 -11.59,-79.92 -23.21,-160.05 -34.77,-239.98 -94.62,0 -189.52,0 -284.14,0 11.57,79.93 23.18,160.06 34.76,239.98 z m 1413.16,-337.01 c 94.89,0 189.52,0 284.41,0 -11.57,-79.93 -23.12,-159.83 -34.73,-239.99 -94.9,0 -189.52,0 -284.42,0 11.6,80.16 23.17,160.06 34.74,239.99 z m -365.56,0 c 94.89,0 189.53,0 284.42,0 -11.57,-79.93 -23.15,-159.83 -34.76,-239.99 -94.9,0 -189.52,0 -284.41,0 11.61,80.16 23.18,160.06 34.75,239.99 z m -365.58,0 c 94.91,0 189.53,0 284.42,0 -11.55,-79.93 -23.12,-159.83 -34.73,-239.99 -94.91,0 -189.53,0 -284.43,0 11.61,80.16 23.18,160.06 34.74,239.99 z m -730.83,0 c 94.61,0 189.51,0 284.14,0 -11.58,-79.93 -23.16,-159.83 -34.77,-239.99 -94.62,0 -189.51,0 -284.13,0 11.6,80.16 23.17,160.06 34.76,239.99 z M 2679.89,2074.7 c 94.9,0 189.52,0 284.43,0 -11.59,-79.94 -23.16,-159.85 -34.72,-239.77 -94.89,0 -189.53,0 -284.43,0 11.58,79.92 23.15,159.83 34.72,239.77 z m -365.57,0 c 94.9,0 189.53,0 284.43,0 -11.57,-79.94 -23.14,-159.85 -34.73,-239.77 -94.9,0 -189.53,0 -284.42,0 11.57,79.92 23.15,159.83 34.72,239.77 z m -365.57,0 c 94.9,0 189.54,0 284.42,0 -11.57,-79.94 -23.15,-159.85 -34.71,-239.77 -94.91,0 -189.8,0 -284.42,-0.22 11.56,80.14 23.13,160.05 34.71,239.99 z m -730.85,0 c 94.34,0 189.52,0 283.86,0 -11.59,-79.94 -23.15,-159.85 -34.71,-239.99 -94.36,0 -189.55,0 -283.89,0 11.58,79.92 23.16,160.05 34.74,239.99 z m 1413.18,-337.01 c 94.91,0 189.53,0 284.44,0 -11.57,-79.92 -23.16,-159.85 -34.72,-239.77 -94.9,0 -189.53,0 -284.43,0 11.57,79.92 23.16,159.85 34.71,239.77 z m -365.56,0 c 94.89,0 189.51,0 284.43,0 -11.58,-79.92 -23.15,-159.85 -34.73,-239.77 -94.91,0 -189.52,0 -284.43,0 11.58,79.92 23.16,159.85 34.73,239.77 z m -365.57,-0.22 c 94.61,0 189.52,0.22 284.43,0.22 -11.58,-79.92 -23.15,-159.85 -34.74,-239.77 -94.88,0 -189.8,0 -284.42,0 11.57,79.92 23.15,159.85 34.73,239.55 z m -730.87,0 c 94.34,0 189.25,0 283.87,0 -11.58,-79.7 -23.16,-159.85 -34.73,-239.55 -94.63,0 -189.52,0 -283.86,-0.23 11.58,79.93 23.15,159.84 34.72,239.78 z m 365.29,0 c 94.63,0 189.81,0 284.15,0 -11.57,-79.7 -23.15,-159.63 -34.74,-239.55 -94.33,0 -189.5,0 -284.14,0 11.58,79.7 23.15,159.85 34.73,239.55 z m 48.8,337.23 c 94.9,0 189.81,0 284.44,0 -11.58,-79.94 -23.15,-159.85 -35.02,-239.99 -94.32,0 -189.5,0 -284.13,0 11.58,80.14 23.15,160.05 34.71,239.99 z m 48.83,337.01 c 94.91,0 189.8,0 284.41,0 -11.57,-79.93 -23.13,-159.83 -34.74,-239.99 -94.62,0 -189.53,0 -284.44,0 11.61,80.16 23.2,160.06 34.77,239.99 z m 1194.31,674.02 c 94.88,0 189.24,0 284.41,0 -11.61,-80.36 -23.19,-160.04 -34.75,-239.98 -95.18,0 -189.52,0 -284.42,0 11.57,79.94 23.15,159.86 34.76,239.98 z m -365.58,0 c 94.91,0 189.52,0 284.43,0 -11.61,-80.12 -23.18,-160.04 -34.76,-239.98 -94.9,0 -189.51,0 -284.42,0 11.57,79.94 23.15,159.86 34.75,239.98 z m -779.9,-337.01 c 94.88,0 189.79,0 284.41,0 -11.58,-79.92 -23.18,-160.05 -34.76,-239.98 -94.64,0 -189.54,0 -284.43,0 11.57,79.93 23.19,160.06 34.78,239.98 z m 1096.68,0 c 94.89,0 189.23,0 284.41,0 -11.58,-79.92 -23.19,-160.29 -34.75,-239.98 -94.91,0 -189.52,0 -284.43,0 11.57,79.93 23.18,160.06 34.77,239.98 v 0"
                  style="
                    fill: #ffffff;
                    fill-opacity: 1;
                    fill-rule: evenodd;
                    stroke: none;
                  "
                />
                <path
                  d="m 2418.79,2707.61 81.57,-108.61 200.41,160.48 24.02,-31.97 -240.35,-192.44 -105.57,140.59 z m -365.87,0 c 27.18,-36.19 54.39,-72.4 81.57,-108.61 66.81,53.5 133.61,106.99 200.41,160.48 8.01,-10.66 16.01,-21.31 24.02,-31.97 -80.12,-64.15 -160.23,-128.28 -240.34,-192.44 -35.2,46.87 -70.39,93.72 -105.59,140.59 13.31,10.64 26.61,21.3 39.93,31.95 z m -731.73,0 81.58,-108.61 200.39,160.48 24.02,-31.97 -240.31,-192.44 -105.61,140.59 z m 365.88,0 c 27.18,-36.19 54.37,-72.4 81.55,-108.61 66.81,53.5 133.62,106.99 200.43,160.48 7.99,-10.66 15.98,-21.31 24,-31.97 -80.11,-64.15 -160.21,-128.28 -240.33,-192.44 -35.19,46.87 -70.39,93.72 -105.59,140.59 13.3,10.64 26.62,21.3 39.94,31.95 v 0"
                  style="
                    fill: #f2547a;
                    fill-opacity: 1;
                    fill-rule: evenodd;
                    stroke: none;
                  "
                />
                <path
                  d="m 723.563,2390.62 c 440.797,0 833.727,-366.02 876.567,-806.83 42.84,-440.81 -308.99,-497.4 -749.786,-497.4 -440.817,0 -803.6682,56.59 -846.51587,497.4 C -39.0234,2024.6 282.75,2390.62 723.563,2390.62"
                  style="
                    fill: #f2547a;
                    fill-opacity: 1;
                    fill-rule: evenodd;
                    stroke: none;
                  "
                />
                <path
                  d="m 620.84,1874.3 h 769.35 c 75.9,0 141.07,-37.63 179.02,-103.37 l 309.87,-536.71 -85.34,-147.83 -473.32,473.33 H 874.215 c -199.125,0 -266.293,174.27 -253.375,314.58"
                  style="
                    fill: #63527b;
                    fill-opacity: 1;
                    fill-rule: evenodd;
                    stroke: none;
                  "
                />
                <path
                  d="m 1793.74,1086.39 h 302.86 l -9.64,53.08 c -8.64,47.48 -45.82,84.65 -93.29,93.29 l -114.59,1.46 -85.34,-147.83"
                  style="
                    fill: #be5582;
                    fill-opacity: 1;
                    fill-rule: evenodd;
                    stroke: none;
                  "
                />
                <path
                  d="m 801.836,1874.3 679.534,210.11 c 47.9,14.02 99.62,0.95 135.06,-34.17 35.45,-35.12 49.02,-86.71 35.45,-134.72 -15.1,-53.41 -42.68,-102.47 -80.42,-143.15 -26.14,-28.17 -65.71,-39.57 -102.82,-29.61 -37.11,9.94 -65.69,39.59 -74.24,77.06 -4.09,17.92 -4.09,36.55 0,54.48 H 801.836"
                  style="
                    fill: #4a3c5e;
                    fill-opacity: 1;
                    fill-rule: evenodd;
                    stroke: none;
                  "
                />
                <path
                  d="m 1797.74,1924.82 v 0 c 17.01,-54.94 -14,-113.8 -68.93,-130.81 l -135.3,-41.91 c -54.94,-17.01 -113.78,14 -130.8,68.94 v 0 c -17.01,54.92 14.01,113.77 68.94,130.78 l 135.29,41.93 c 54.93,17.01 113.78,-14.01 130.8,-68.93"
                  style="
                    fill: #be5582;
                    fill-opacity: 1;
                    fill-rule: evenodd;
                    stroke: none;
                  "
                />
                <path
                  d="m 620.84,1874.3 -173.91,448.43 c -31.914,82.3 7.953,218.11 96.183,221.2 42.625,1.5 85.985,-7.64 127.235,-27.67 l 36.062,-17.54 c 114.836,-55.81 185.621,-160.84 194.266,-288.23 L 923.473,1874.3 H 620.84"
                  style="
                    fill: #be5582;
                    fill-opacity: 1;
                    fill-rule: evenodd;
                    stroke: none;
                  "
                />
                <path
                  d="m 519.766,2539.79 77.613,388.8 210.324,-44.28 -23.988,-212.18 c -8.953,-66.9 -79.043,-107.36 -141.469,-81.7 l -5.566,-31.24 91.445,-71.9 c -53.98,-55.85 -148.379,54.12 -208.359,52.5"
                  style="
                    fill: #fbc6a4;
                    fill-opacity: 1;
                    fill-rule: evenodd;
                    stroke: none;
                  "
                />
                <path
                  d="m 720.426,2860.25 82.64,-17.09 c 97.864,-20.63 138.227,151.89 -13.304,151.88 -94.188,0 -159.723,-21.32 -198.02,-40.48 l -19.519,6.2 c -10.297,3.27 -21.563,0.51 -29.211,-7.12 -7.637,-7.64 -10.379,-18.91 -7.11,-29.2 l 5.871,-274.39 100.586,118.41 62.895,11.56 -7.223,48.45 c -2.234,14.88 8.817,34.6 22.395,31.78"
                  style="
                    fill: #63527b;
                    fill-opacity: 1;
                    fill-rule: evenodd;
                    stroke: none;
                  "
                />
                <path
                  d="m 634.609,2726.51 c 19.629,0 35.633,22.87 35.633,50.92 0,28.02 -16.004,50.9 -35.633,50.9 -19.632,0 -35.632,-22.88 -35.632,-50.9 0,-28.05 16,-50.92 35.632,-50.92"
                  style="
                    fill: #fbc6a4;
                    fill-opacity: 1;
                    fill-rule: evenodd;
                    stroke: none;
                  "
                />
                <path
                  d="m 547.359,2249.37 151.219,-234.73 c 22.25,-34.51 59.973,-52.02 100.699,-46.74 l 367.503,47.75 -18.81,71.28 -340.072,21.44 -93.078,231.55 -167.461,-90.55"
                  style="
                    fill: #fbc6a4;
                    fill-opacity: 1;
                    fill-rule: evenodd;
                    stroke: none;
                  "
                />
                <path
                  d="m 1147.97,2086.93 29.37,3.02 c 47.24,4.85 94.61,-7.85 133.1,-35.69 l -128.77,-45.65 -14.89,7.04 -71.87,17.52 53.06,53.76"
                  style="
                    fill: #fbc6a4;
                    fill-opacity: 1;
                    fill-rule: evenodd;
                    stroke: none;
                  "
                />
                <path
                  d="m 1141.25,1979.24 c -7.19,-2.2 -14.8,1.82 -17.02,9.02 -2.21,7.19 1.83,14.82 9.02,17.02 l 267.67,82.76 45.5,290.28 c 1.15,7.42 8.1,12.52 15.54,11.36 7.42,-1.12 12.5,-8.1 11.37,-15.52 l -46.73,-298.03 c -0.55,-5.26 -4.16,-9.95 -9.54,-11.61 l -275.81,-85.28"
                  style="
                    fill: #63527b;
                    fill-opacity: 1;
                    fill-rule: evenodd;
                    stroke: none;
                  "
                />
                <path
                  d="m 752.426,1962.81 c 16.148,0 29.312,13.18 29.312,29.31 0,16.14 -13.164,29.31 -29.312,29.31 -16.125,0 -29.313,-13.17 -29.313,-29.31 0,-16.13 13.188,-29.31 29.313,-29.31"
                  style="
                    fill: #fbc6a4;
                    fill-opacity: 1;
                    fill-rule: evenodd;
                    stroke: none;
                  "
                />
              </g>
            </g>
</svg>
