<?xml version="1.0" encoding="UTF-8" standalone="no"?>
<svg
   xmlns:dc="http://purl.org/dc/elements/1.1/"
   xmlns:cc="http://creativecommons.org/ns#"
   xmlns:rdf="http://www.w3.org/1999/02/22-rdf-syntax-ns#"
   xmlns:svg="http://www.w3.org/2000/svg"
   xmlns="http://www.w3.org/2000/svg"
   xmlns:sodipodi="http://sodipodi.sourceforge.net/DTD/sodipodi-0.dtd"
   xmlns:inkscape="http://www.inkscape.org/namespaces/inkscape"
   version="1.1"
   id="svg2"
   xml:space="preserve"
   width="624.50665"
   height="588.71997"
   viewBox="0 0 624.50665 588.71997"
   sodipodi:docname="calendar-schedule-business-publicdomainvectors.org.eps"><metadata
     id="metadata8"><rdf:RDF><cc:Work
         rdf:about=""><dc:format>image/svg+xml</dc:format><dc:type
           rdf:resource="http://purl.org/dc/dcmitype/StillImage" /></cc:Work></rdf:RDF></metadata><defs
     id="defs6" /><sodipodi:namedview
     pagecolor="#ffffff"
     bordercolor="#666666"
     borderopacity="1"
     objecttolerance="10"
     gridtolerance="10"
     guidetolerance="10"
     inkscape:pageopacity="0"
     inkscape:pageshadow="2"
     inkscape:window-width="640"
     inkscape:window-height="480"
     id="namedview4" /><g
     id="g10"
     inkscape:groupmode="layer"
     inkscape:label="ink_ext_XXXXXX"
     transform="matrix(1.3333333,0,0,-1.3333333,0,588.72)"><g
       id="g12"
       transform="scale(0.1)"><path
         d="m 1447.64,72.9219 c 0,5.4492 -0.78,10.1679 -2.41,14.0273 -1.57,3.9102 -3.77,6.9297 -6.62,9.0625 -2.83,2.0703 -5.94,3.1406 -9.39,3.1406 -5.45,0 -10.06,-2.3125 -13.81,-6.7617 -3.75,-4.5117 -5.62,-11.1015 -5.62,-19.832 0,-8.2266 1.87,-14.6289 5.56,-19.1367 3.75,-4.5821 8.38,-6.8828 13.87,-6.8828 3.28,0 6.35,0.9922 9.16,3.0195 2.76,1.9922 5.02,4.9727 6.72,8.9102 1.71,4.0312 2.54,8.8125 2.54,14.4531 z M 1408.87,103 v -2.488 c 3.71,4.769 7.56,8.328 11.56,10.539 4.02,2.258 8.59,3.398 13.67,3.398 6.08,0 11.68,-1.648 16.81,-4.929 5.11,-3.278 9.15,-8.051 12.14,-14.3794 2.97,-6.3203 4.43,-13.7617 4.43,-22.3789 0,-6.3398 -0.83,-12.25 -2.55,-17.4922 -1.71,-5.3281 -4.07,-9.8281 -7.06,-13.4179 -3,-3.6016 -6.56,-6.4024 -10.61,-8.3125 -4.11,-1.9688 -8.51,-2.9297 -13.16,-2.9297 -5.68,0 -10.43,1.1797 -14.27,3.5625 -3.87,2.3594 -7.51,5.8203 -10.96,10.4179 V 13.6094 C 1408.87,4.51953 1405.69,0 1399.37,0 c -3.73,0 -6.21,1.14844 -7.38,3.48047 -1.22,2.35937 -1.81,5.76953 -1.81,10.26173 v 89.1288 c 0,3.918 0.79,6.871 2.45,8.809 1.67,1.922 3.9,2.922 6.74,2.922 2.8,0 5.08,-1 6.84,-3.012 1.76,-2.008 2.66,-4.879 2.66,-8.59"
         style="fill:#f2547a;fill-opacity:1;fill-rule:nonzero;stroke:none"
         id="path14" /><path
         d="m 1534.79,42.2891 v 2.6093 c -2.39,-3.1171 -4.87,-5.7187 -7.49,-7.8281 -2.6,-2.1601 -5.45,-3.7187 -8.53,-4.7383 -3.13,-1.0312 -6.64,-1.5507 -10.61,-1.5507 -4.75,0 -9.04,1.039 -12.85,3.0781 -3.8,2.0703 -6.74,4.9219 -8.79,8.5508 -2.5,4.3906 -3.7,10.6992 -3.7,18.8789 v 40.9299 c 0,4.101 0.89,7.222 2.69,9.25 1.78,2.043 4.14,3.07 7.08,3.07 3.01,0 5.41,-1.027 7.25,-3.117 1.84,-2.07 2.75,-5.16 2.75,-9.203 V 69.1523 c 0,-4.7617 0.38,-8.7812 1.13,-12.0234 0.81,-3.2578 2.2,-5.8086 4.22,-7.668 1.96,-1.8203 4.7,-2.7421 8.12,-2.7421 3.37,0 6.5,1.0507 9.43,3.1132 2.97,2.0391 5.13,4.7383 6.46,8.0703 1.12,2.9297 1.66,9.3165 1.66,19.1993 v 25.1174 c 0,4.043 0.92,7.133 2.78,9.203 1.81,2.09 4.18,3.117 7.15,3.117 2.94,0 5.31,-1.027 7.09,-3.07 1.77,-2.028 2.65,-5.149 2.65,-9.25 V 42.4102 c 0,-3.9297 -0.82,-6.8907 -2.54,-8.8282 -1.7,-1.9922 -3.9,-2.9531 -6.62,-2.9531 -2.69,0 -4.92,1.0508 -6.7,3.043 -1.76,2.0703 -2.63,4.8984 -2.63,8.6172"
         style="fill:#f2547a;fill-opacity:1;fill-rule:nonzero;stroke:none"
         id="path16" /><path
         d="m 1592.17,72.1016 c 0,-8.2227 1.79,-14.5118 5.37,-18.9297 3.61,-4.4024 8.34,-6.6328 14.2,-6.6328 4.98,0 9.24,2.2695 12.86,6.7812 3.62,4.5195 5.42,10.9414 5.42,19.3789 0,5.5 -0.75,10.1719 -2.26,14.0821 -1.51,3.9609 -3.65,6.9882 -6.37,9.1171 -2.8,2.1407 -5.97,3.2539 -9.65,3.2539 -3.81,0 -7.11,-1.1132 -10.08,-3.2539 -2.97,-2.1289 -5.26,-5.2382 -6.97,-9.3086 -1.69,-4.0312 -2.52,-8.8398 -2.52,-14.4882 z m -0.94,61.3674 V 101.91 c 3.67,4.07 7.49,7.129 11.35,9.32 3.87,2.129 8.67,3.219 14.35,3.219 6.59,0 12.34,-1.648 17.29,-4.867 4.94,-3.32 8.81,-7.992 11.52,-14.1601 2.76,-6.1797 4.1,-13.5 4.1,-21.9727 0,-6.2695 -0.75,-11.9883 -2.25,-17.2383 -1.54,-5.1992 -3.72,-9.6992 -6.63,-13.582 -2.93,-3.8086 -6.45,-6.7383 -10.56,-8.8984 -4.15,-2.0508 -8.7,-3.1211 -13.67,-3.1211 -3.02,0 -5.91,0.3906 -8.6,1.1328 -2.68,0.7695 -4.99,1.75 -6.82,3.0195 -1.92,1.168 -3.52,2.4883 -4.85,3.7696 -1.32,1.3281 -3.06,3.2773 -5.23,5.8984 v -2.0195 c 0,-3.8985 -0.92,-6.8282 -2.7,-8.8282 -1.77,-1.9922 -4.08,-2.9726 -6.8,-2.9726 -2.82,0 -5.04,0.9804 -6.73,2.9726 -1.65,2.0391 -2.48,4.9493 -2.48,8.8282 V 132.57 c 0,4.149 0.8,7.328 2.44,9.461 1.61,2.149 3.85,3.219 6.77,3.219 3.03,0 5.38,-1.02 7,-3.078 1.66,-2.024 2.5,-4.91 2.5,-8.703"
         style="fill:#f2547a;fill-opacity:1;fill-rule:nonzero;stroke:none"
         id="path18" /><path
         d="m 1663.81,43.1797 v 89.5193 c 0,4.153 0.88,7.262 2.62,9.391 1.79,2.09 4.16,3.16 7.15,3.16 3,0 5.4,-1.031 7.25,-3.141 1.81,-2.078 2.76,-5.238 2.76,-9.41 V 43.1797 c 0,-4.1875 -0.95,-7.3399 -2.81,-9.4492 -1.84,-2.0508 -4.26,-3.1211 -7.2,-3.1211 -2.9,0 -5.22,1.0898 -7.05,3.25 -1.81,2.1797 -2.72,5.2695 -2.72,9.3203"
         style="fill:#f2547a;fill-opacity:1;fill-rule:nonzero;stroke:none"
         id="path20" /><path
         d="M 1723.79,102.809 V 43.1797 c 0,-4.1602 -0.97,-7.2891 -2.8,-9.4102 -1.91,-2.0703 -4.31,-3.1601 -7.18,-3.1601 -2.91,0 -5.27,1.0898 -7.07,3.2422 -1.8,2.1875 -2.74,5.2773 -2.74,9.3281 v 59.0393 c 0,4.043 0.94,7.133 2.74,9.203 1.8,2.09 4.16,3.117 7.07,3.117 2.87,0 5.27,-1.027 7.18,-3.117 1.83,-2.07 2.8,-4.93 2.8,-8.613 z M 1714,124.16 c -2.75,0 -5.08,0.871 -7.09,2.68 -1.9,1.762 -2.91,4.281 -2.91,7.512 0,2.91 1.01,5.289 3.02,7.218 2,1.891 4.33,2.782 6.98,2.782 2.56,0 4.85,-0.832 6.82,-2.532 1.97,-1.718 2.97,-4.238 2.97,-7.468 0,-3.204 -0.98,-5.68 -2.91,-7.45 -1.93,-1.793 -4.2,-2.742 -6.88,-2.742"
         style="fill:#f2547a;fill-opacity:1;fill-rule:nonzero;stroke:none"
         id="path22" /><path
         d="m 1815.08,56.1797 c 0,-2.5586 -0.72,-5.3281 -2.19,-8.25 -1.49,-2.918 -3.74,-5.6875 -6.77,-8.3399 -2.99,-2.6406 -6.8,-4.7695 -11.39,-6.371 -4.59,-1.6485 -9.77,-2.4375 -15.5,-2.4375 -12.24,0 -21.77,3.7304 -28.63,11.1484 -6.85,7.4414 -10.29,17.3789 -10.29,29.8906 0,8.4688 1.57,15.9805 4.69,22.461 3.13,6.4687 7.71,11.5387 13.63,15.0707 5.93,3.578 13.06,5.347 21.29,5.347 5.14,0 9.85,-0.801 14.12,-2.34 4.27,-1.57 7.89,-3.597 10.86,-6.05 2.97,-2.477 5.24,-5.11 6.82,-7.8988 1.58,-2.7891 2.34,-5.4102 2.34,-7.8282 0,-2.4414 -0.9,-4.5312 -2.63,-6.2617 -1.78,-1.7305 -3.89,-2.5781 -6.41,-2.5781 -1.66,0 -3.01,0.4766 -4.12,1.3594 -1.06,0.8476 -2.29,2.2382 -3.65,4.25 -2.41,3.8203 -4.95,6.707 -7.57,8.6601 -2.64,1.8985 -5.99,2.8789 -10.01,2.8789 -5.88,0 -10.59,-2.4218 -14.15,-7.1797 -3.59,-4.789 -5.35,-11.289 -5.35,-19.5703 0,-3.8515 0.46,-7.4687 1.38,-10.6992 0.91,-3.2617 2.24,-6.0195 3.97,-8.332 1.75,-2.2891 3.83,-4.0196 6.3,-5.1992 2.46,-1.2188 5.17,-1.7891 8.1,-1.7891 3.99,0 7.37,0.9375 10.2,2.8594 2.83,1.9297 5.33,4.8593 7.5,8.75 1.21,2.3711 2.51,4.1718 3.91,5.5 1.42,1.3203 3.14,1.9414 5.16,1.9414 2.41,0 4.41,-0.9414 6.02,-2.8516 1.57,-1.9492 2.37,-3.9687 2.37,-6.1406"
         style="fill:#f2547a;fill-opacity:1;fill-rule:nonzero;stroke:none"
         id="path24" /><path
         d="m 1847.67,72.6992 c 0,-5.5976 0.83,-10.3281 2.49,-14.289 1.68,-3.9414 3.92,-6.8594 6.82,-8.8516 2.92,-2.0273 6.09,-3.0195 9.48,-3.0195 3.49,0 6.67,0.9726 9.54,2.832 2.89,1.8984 5.15,4.8086 6.89,8.7187 1.72,3.8907 2.57,8.7813 2.57,14.6094 0,5.5313 -0.85,10.2305 -2.57,14.2031 -1.74,3.9571 -4.04,6.9766 -6.95,9.1094 -2.93,2.0703 -6.12,3.1406 -9.59,3.1406 -3.62,0 -6.85,-1.1132 -9.71,-3.2539 -2.83,-2.1289 -5.07,-5.2265 -6.63,-9.2265 -1.55,-4.0313 -2.34,-8.6406 -2.34,-13.9727 z m 38.87,-30.289 v 2.0195 c -2.65,-3.168 -5.27,-5.75 -7.89,-7.7188 -2.54,-2.0117 -5.36,-3.5195 -8.38,-4.5625 -3,-1 -6.31,-1.539 -9.87,-1.539 -4.73,0 -9.14,1.0703 -13.15,3.1211 -4.03,2.1601 -7.51,5.1093 -10.46,8.9883 -2.94,3.8828 -5.18,8.4414 -6.71,13.7031 -1.54,5.2304 -2.29,10.8984 -2.29,17.0273 0,12.8711 3.03,22.9805 9.07,30.1918 6.05,7.211 13.98,10.808 23.82,10.808 5.7,0 10.51,-1.051 14.42,-3.129 3.9,-2 7.73,-5.14 11.44,-9.41 v 30.488 c 0,4.243 0.8,7.442 2.43,9.602 1.62,2.18 3.9,3.25 6.91,3.25 2.99,0 5.29,-1 6.93,-2.969 1.6,-1.98 2.44,-4.929 2.44,-8.812 V 42.4102 c 0,-3.9297 -0.87,-6.8907 -2.62,-8.8282 -1.75,-1.9922 -3.98,-2.9726 -6.75,-2.9726 -2.68,0 -4.94,1.0195 -6.71,3.0625 -1.75,2.0273 -2.63,4.9179 -2.63,8.7383"
         style="fill:#f2547a;fill-opacity:1;fill-rule:nonzero;stroke:none"
         id="path26" /><path
         d="m 1979.3,72.5313 c 0,8.3906 -1.81,14.9687 -5.34,19.6484 -3.55,4.6601 -8.33,7.0312 -14.31,7.0312 -3.89,0 -7.28,-1.0507 -10.23,-3.1406 -2.94,-2.1211 -5.2,-5.2109 -6.8,-9.289 -1.58,-4.0391 -2.4,-8.7813 -2.4,-14.25 0,-5.4024 0.82,-10.0899 2.36,-14.1211 1.56,-4.0313 3.82,-7.1211 6.76,-9.2579 2.91,-2.1406 6.37,-3.2031 10.31,-3.2031 5.98,0 10.76,2.3516 14.31,7.0508 3.53,4.6992 5.34,11.2305 5.34,19.5313 z m 19.84,0 c 0,-6.1094 -0.93,-11.7891 -2.75,-17.0196 -1.84,-5.1406 -4.5,-9.6211 -7.95,-13.3633 -3.51,-3.7382 -7.66,-6.5273 -12.48,-8.5664 -4.83,-1.9922 -10.31,-2.9726 -16.31,-2.9726 -5.98,0 -11.38,0.9804 -16.14,3.0312 -4.79,2 -8.95,4.8907 -12.46,8.6485 -3.48,3.7695 -6.13,8.1601 -7.96,13.2812 -1.81,5.1602 -2.71,10.7695 -2.71,17 0,6.25 0.93,11.9688 2.75,17.1289 1.83,5.2305 4.45,9.6328 7.89,13.3398 3.43,3.672 7.57,6.512 12.49,8.492 4.89,2 10.24,3.008 16.14,3.008 5.99,0 11.43,-1.008 16.31,-3.039 4.86,-2 9.04,-4.898 12.52,-8.629 3.49,-3.7187 6.13,-8.1913 7.91,-13.3319 1.85,-5.1289 2.75,-10.7969 2.75,-17.0078"
         style="fill:#f2547a;fill-opacity:1;fill-rule:nonzero;stroke:none"
         id="path28" /><path
         d="m 2082.68,89.5898 c -1.49,-3.4882 -2.19,-9.6484 -2.19,-18.5195 V 43.6406 c 0,-4.3203 -0.93,-7.6015 -2.83,-9.7812 -1.88,-2.1602 -4.4,-3.25 -7.48,-3.25 -2.97,0 -5.39,1.0898 -7.24,3.25 -1.87,2.1797 -2.77,5.4609 -2.77,9.7812 v 32.9297 c 0,5.1719 -0.2,9.1992 -0.54,12.1094 -0.34,2.8398 -1.25,5.2109 -2.75,7.0625 -1.47,1.8476 -3.85,2.7695 -7.08,2.7695 -6.46,0 -10.72,-2.3203 -12.79,-6.9922 -2.07,-4.6172 -3.05,-11.2773 -3.05,-19.9687 V 43.6406 c 0,-4.3086 -0.95,-7.5508 -2.79,-9.6992 -1.87,-2.2422 -4.32,-3.332 -7.33,-3.332 -3.02,0 -5.5,1.0898 -7.39,3.332 -1.93,2.1484 -2.84,5.3906 -2.84,9.6875 v 59.0701 c 0,3.903 0.82,6.852 2.52,8.86 1.74,2 4,3.043 6.82,3.043 2.69,0 4.96,-0.942 6.76,-2.84 1.8,-1.883 2.71,-4.481 2.71,-7.821 v -1.961 c 3.42,4.282 7.1,7.45 11,9.442 3.9,2.008 8.3,3.027 13.04,3.027 4.97,0 9.22,-1.051 12.8,-3.129 3.59,-2.039 6.52,-5.172 8.83,-9.34 3.34,4.2 6.91,7.372 10.74,9.399 3.82,2.051 8.04,3.07 12.65,3.07 5.45,0 10.1,-1.09 13.99,-3.34 3.92,-2.218 6.83,-5.379 8.78,-9.519 1.7,-3.7306 2.53,-9.5978 2.53,-17.6408 V 43.6406 c 0,-4.3203 -0.94,-7.6015 -2.8,-9.7812 -1.92,-2.1602 -4.38,-3.25 -7.48,-3.25 -3,0 -5.45,1.0898 -7.34,3.332 -1.93,2.1484 -2.89,5.3906 -2.89,9.6992 v 34.7305 c 0,4.4492 -0.18,7.9883 -0.53,10.668 -0.37,2.7031 -1.35,4.9101 -2.96,6.7422 -1.58,1.8085 -4.01,2.7304 -7.21,2.7304 -2.61,0 -5.1,-0.8203 -7.41,-2.3906 -2.38,-1.6406 -4.16,-3.8125 -5.48,-6.5313 v 0"
         style="fill:#f2547a;fill-opacity:1;fill-rule:nonzero;stroke:none"
         id="path30" /><path
         d="m 2194.69,72.1406 c -2.91,-1.1289 -7.13,-2.2695 -12.66,-3.5312 -5.54,-1.2305 -9.36,-2.1289 -11.49,-2.7305 -2.13,-0.5898 -4.16,-1.707 -6.07,-3.3789 -1.95,-1.7383 -2.93,-4.0898 -2.93,-7.1094 0,-3.1601 1.16,-5.789 3.4,-7.9922 2.29,-2.2187 5.27,-3.289 8.94,-3.289 3.9,0 7.54,0.9023 10.83,2.6914 3.31,1.7812 5.76,4.1094 7.27,6.918 1.8,3.1328 2.71,8.2617 2.71,15.4804 z m 1.29,-29.8984 c -4.8,-3.8906 -9.42,-6.793 -13.88,-8.7031 -4.45,-1.9688 -9.49,-2.9297 -15.02,-2.9297 -5.11,0 -9.52,1.0703 -13.39,3.1211 -3.87,2.1093 -6.8,4.9492 -8.89,8.5586 -2.05,3.5703 -3.11,7.4218 -3.11,11.6211 0,5.6601 1.76,10.4492 5.18,14.4414 3.39,3.957 8.1,6.6484 14.09,8.0078 1.26,0.3125 4.39,0.9609 9.33,2.0117 5.03,1.0977 9.25,2.0508 12.85,2.918 3.52,0.8711 7.4,1.9531 11.55,3.2031 -0.26,5.4687 -1.3,9.457 -3.15,12.0586 -1.88,2.5195 -5.76,3.7692 -11.57,3.7692 -5.05,0 -8.81,-0.7184 -11.38,-2.1794 -2.52,-1.4492 -4.7,-3.6601 -6.49,-6.6211 -1.84,-2.8984 -3.09,-4.8398 -3.84,-5.7578 -0.77,-0.9609 -2.38,-1.3828 -4.8,-1.3828 -2.26,0 -4.16,0.7305 -5.76,2.2031 -1.65,1.5 -2.45,3.3789 -2.45,5.7266 0,3.6211 1.23,7.1836 3.69,10.5624 2.47,3.438 6.31,6.258 11.52,8.508 5.21,2.223 11.73,3.32 19.51,3.32 8.67,0 15.52,-1.097 20.53,-3.23 4.96,-2.117 8.44,-5.489 10.51,-10.168 2.07,-4.6096 3.08,-10.7815 3.08,-18.4299 0,-4.8398 0,-8.9805 -0.03,-12.3398 -0.04,-3.4024 -0.06,-7.1524 -0.1,-11.2813 0,-3.8594 0.61,-7.9297 1.85,-12.1211 1.2,-4.1992 1.82,-6.9297 1.82,-8.1094 0,-2.1289 -0.97,-4.0586 -2.86,-5.8007 -1.87,-1.7266 -4.06,-2.6094 -6.46,-2.6094 -2.06,0 -4.02,0.9804 -6.03,2.9726 -1.98,2 -4.08,4.8985 -6.3,8.6602"
         style="fill:#f2547a;fill-opacity:1;fill-rule:nonzero;stroke:none"
         id="path32" /><path
         d="M 2253.96,102.809 V 43.1797 c 0,-4.1602 -0.94,-7.2891 -2.8,-9.4102 -1.88,-2.0703 -4.26,-3.1601 -7.17,-3.1601 -2.89,0 -5.27,1.0898 -7.06,3.2422 -1.83,2.1875 -2.74,5.2773 -2.74,9.3281 v 59.0393 c 0,4.043 0.91,7.133 2.74,9.203 1.79,2.09 4.17,3.117 7.06,3.117 2.91,0 5.29,-1.027 7.17,-3.117 1.86,-2.07 2.8,-4.93 2.8,-8.613 z m -9.77,21.351 c -2.73,0 -5.07,0.871 -7.03,2.68 -1.95,1.762 -2.97,4.281 -2.97,7.512 0,2.91 1.02,5.289 3.04,7.218 1.98,1.891 4.33,2.782 6.96,2.782 2.57,0 4.86,-0.832 6.85,-2.532 1.95,-1.718 2.92,-4.238 2.92,-7.468 0,-3.204 -0.94,-5.68 -2.89,-7.45 -1.93,-1.793 -4.22,-2.742 -6.88,-2.742"
         style="fill:#f2547a;fill-opacity:1;fill-rule:nonzero;stroke:none"
         id="path34" /><path
         d="m 2292.4,103.109 v -2.457 c 3.46,4.77 7.26,8.278 11.36,10.52 4.14,2.226 8.89,3.367 14.28,3.367 5.18,0 9.87,-1.18 14,-3.578 4.06,-2.352 7.15,-5.68 9.16,-10 1.32,-2.5508 2.14,-5.2891 2.55,-8.1993 0.36,-2.9023 0.59,-6.6328 0.59,-11.1797 V 43.1797 c 0,-4.1602 -0.94,-7.2891 -2.74,-9.4102 -1.81,-2.0703 -4.18,-3.1601 -7.06,-3.1601 -2.94,0 -5.34,1.0898 -7.11,3.25 -1.86,2.1797 -2.8,5.2695 -2.8,9.3203 v 34.3711 c 0,6.8515 -0.88,12.039 -2.69,15.6289 -1.84,3.6016 -5.47,5.4297 -10.88,5.4297 -3.51,0 -6.72,-1.0977 -9.61,-3.3086 -2.9,-2.1719 -5.02,-5.1992 -6.37,-9.0391 C 2294.11,83.1914 2293.6,77.4688 2293.6,69 V 43.1797 c 0,-4.1875 -0.9,-7.3399 -2.78,-9.4492 -1.86,-2.0508 -4.27,-3.1211 -7.2,-3.1211 -2.83,0 -5.19,1.0898 -7.02,3.2422 -1.86,2.1875 -2.76,5.2773 -2.76,9.3281 v 59.6293 c 0,3.953 0.81,6.851 2.48,8.812 1.6,1.938 3.9,2.918 6.74,2.918 1.71,0 3.3,-0.457 4.67,-1.289 1.45,-0.84 2.53,-2.168 3.38,-3.82 0.82,-1.758 1.29,-3.848 1.29,-6.321"
         style="fill:#f2547a;fill-opacity:1;fill-rule:nonzero;stroke:none"
         id="path36" /><path
         d="m 2376.07,101.691 15.98,-46.8707 17.25,48.9217 c 1.37,3.93 2.69,6.688 4.01,8.34 1.34,1.629 3.28,2.457 5.93,2.457 2.51,0 4.64,-0.879 6.44,-2.68 1.73,-1.75 2.62,-3.757 2.62,-6.129 0,-0.89 -0.17,-1.941 -0.49,-3.121 -0.28,-1.238 -0.64,-2.367 -1.07,-3.4488 -0.42,-1.0196 -0.85,-2.25 -1.42,-3.6016 l -18.97,-49.1484 c -0.54,-1.3985 -1.24,-3.211 -2.06,-5.3907 -0.86,-2.1484 -1.82,-3.9609 -2.83,-5.5703 -1.06,-1.5078 -2.33,-2.6679 -3.83,-3.539 -1.56,-0.8594 -3.4,-1.3008 -5.58,-1.3008 -2.8,0 -5.02,0.6601 -6.71,1.9804 -1.67,1.3516 -2.9,2.8008 -3.69,4.4219 -0.78,1.5586 -2.15,4.7071 -4.01,9.3985 l -18.86,48.6093 c -0.43,1.1993 -0.9,2.4219 -1.37,3.6289 -0.44,1.211 -0.79,2.4106 -1.13,3.7036 -0.3,1.289 -0.48,2.359 -0.48,3.23 0,1.449 0.41,2.828 1.25,4.219 0.82,1.398 1.96,2.551 3.4,3.41 1.47,0.871 3.01,1.328 4.73,1.328 3.26,0 5.52,-0.98 6.76,-2.98 1.24,-1.957 2.63,-5.25 4.13,-9.868"
         style="fill:#f2547a;fill-opacity:1;fill-rule:nonzero;stroke:none"
         id="path38" /><path
         d="m 2456.97,79.2695 h 35.85 c -0.46,7.0313 -2.26,12.3203 -5.46,15.8008 -3.17,3.4883 -7.34,5.2497 -12.52,5.2497 -4.89,0 -8.95,-1.7809 -12.1,-5.32 -3.16,-3.5391 -5.05,-8.7891 -5.77,-15.7305 z m 38.69,-11.75 h -38.69 c 0.01,-4.6992 0.96,-8.8203 2.69,-12.4297 1.8,-3.539 4.12,-6.25 7.05,-8.0781 2.92,-1.832 6.15,-2.7109 9.69,-2.7109 2.35,0 4.54,0.289 6.46,0.8476 1.95,0.6133 3.87,1.5118 5.72,2.7305 1.81,1.2422 3.48,2.5313 5.04,3.9922 1.53,1.4102 3.6,3.2891 6.02,5.7187 1.02,0.961 2.48,1.379 4.34,1.379 2.06,0 3.69,-0.5586 4.95,-1.75 1.26,-1.1602 1.85,-2.7774 1.85,-4.8868 0,-1.8828 -0.68,-4.0507 -2.1,-6.5703 -1.39,-2.4609 -3.46,-4.8828 -6.34,-7.1914 -2.83,-2.2812 -6.37,-4.1484 -10.65,-5.6992 -4.25,-1.5117 -9.14,-2.2617 -14.75,-2.2617 -12.68,0 -22.57,3.8125 -29.6,11.332 -7.04,7.6094 -10.55,17.8281 -10.55,30.7578 0,6.1719 0.9,11.793 2.59,16.9922 1.74,5.2383 4.26,9.6992 7.6,13.4176 3.34,3.75 7.42,6.633 12.32,8.59 4.9,2.012 10.28,3 16.25,3 7.67,0 14.32,-1.699 19.85,-5.117 5.55,-3.402 9.68,-7.773 12.43,-13.1523 2.76,-5.4297 4.13,-10.8984 4.13,-16.5313 0,-5.1562 -1.38,-8.5273 -4.26,-10.0468 -2.88,-1.5625 -6.86,-2.3321 -12.04,-2.3321"
         style="fill:#f2547a;fill-opacity:1;fill-rule:nonzero;stroke:none"
         id="path40" /><path
         d="m 2599.59,56.1797 c 0,-2.5586 -0.73,-5.3281 -2.24,-8.25 -1.48,-2.918 -3.68,-5.6875 -6.72,-8.3399 -3.01,-2.6406 -6.85,-4.7695 -11.45,-6.371 -4.56,-1.6485 -9.76,-2.4375 -15.46,-2.4375 -12.26,0 -21.8,3.7304 -28.64,11.1484 -6.84,7.4414 -10.29,17.3789 -10.29,29.8906 0,8.4688 1.56,15.9805 4.72,22.461 3.15,6.4687 7.65,11.5387 13.61,15.0707 5.91,3.578 13.04,5.347 21.31,5.347 5.12,0 9.8,-0.801 14.11,-2.34 4.26,-1.57 7.86,-3.597 10.86,-6.05 2.97,-2.477 5.22,-5.11 6.81,-7.8988 1.55,-2.7891 2.34,-5.4102 2.34,-7.8282 0,-2.4414 -0.85,-4.5312 -2.68,-6.2617 -1.74,-1.7305 -3.87,-2.5781 -6.38,-2.5781 -1.65,0 -3.01,0.4766 -4.07,1.3594 -1.11,0.8476 -2.32,2.2382 -3.69,4.25 -2.41,3.8203 -4.92,6.707 -7.56,8.6601 -2.64,1.8985 -5.98,2.8789 -10.05,2.8789 -5.81,0 -10.54,-2.4218 -14.1,-7.1797 -3.6,-4.789 -5.38,-11.289 -5.38,-19.5703 0,-3.8515 0.49,-7.4687 1.37,-10.6992 0.92,-3.2617 2.26,-6.0195 4.01,-8.332 1.73,-2.2891 3.85,-4.0196 6.31,-5.1992 2.42,-1.2188 5.13,-1.7891 8.1,-1.7891 3.96,0 7.37,0.9375 10.19,2.8594 2.81,1.9297 5.33,4.8593 7.51,8.75 1.21,2.3711 2.49,4.1718 3.91,5.5 1.38,1.3203 3.08,1.9414 5.14,1.9414 2.38,0 4.43,-0.9414 5.96,-2.8516 1.63,-1.9492 2.45,-3.9687 2.45,-6.1406"
         style="fill:#f2547a;fill-opacity:1;fill-rule:nonzero;stroke:none"
         id="path42" /><path
         d="m 2617.95,112.801 h 2.18 v 12.41 c 0,3.301 0.08,5.937 0.26,7.809 0.17,1.902 0.61,3.492 1.42,4.882 0.75,1.379 1.86,2.539 3.34,3.438 1.43,0.859 3.04,1.281 4.83,1.281 2.5,0 4.79,-0.961 6.8,-2.922 1.33,-1.328 2.2,-2.91 2.57,-4.777 0.37,-1.902 0.53,-4.613 0.53,-8.082 v -14.039 h 7.27 c 2.8,0 4.95,-0.699 6.41,-2.09 1.51,-1.391 2.22,-3.152 2.22,-5.32 0,-2.782 -1.04,-4.739 -3.17,-5.8324 -2.09,-1.0898 -5.1,-1.6484 -9.02,-1.6484 h -3.71 V 59.8906 c 0,-3.2304 0.12,-5.7187 0.33,-7.4804 0.25,-1.75 0.86,-3.168 1.78,-4.2188 0.91,-1.0898 2.45,-1.6523 4.59,-1.6523 1.15,0 2.72,0.2031 4.72,0.6523 1.93,0.418 3.49,0.6406 4.62,0.6406 1.58,0 3.06,-0.7031 4.32,-1.9726 1.25,-1.3672 1.91,-2.9883 1.91,-4.9805 0,-3.3086 -1.7,-5.8594 -5.21,-7.6172 -3.51,-1.7695 -8.49,-2.6523 -14.99,-2.6523 -6.19,0 -10.89,1.0898 -14.07,3.25 -3.17,2.1797 -5.29,5.1601 -6.25,9.0429 -1.01,3.8165 -1.5,8.9297 -1.5,15.3399 v 39.668 h -2.63 c -2.8,0 -4.98,0.6992 -6.49,2.1208 -1.51,1.41 -2.24,3.18 -2.24,5.36 0,2.168 0.77,3.929 2.32,5.32 1.6,1.391 3.86,2.09 6.86,2.09"
         style="fill:#f2547a;fill-opacity:1;fill-rule:nonzero;stroke:none"
         id="path44" /><path
         d="m 2723.55,72.5313 c 0,8.3906 -1.79,14.9687 -5.32,19.6484 -3.58,4.6601 -8.31,7.0312 -14.31,7.0312 -3.88,0 -7.28,-1.0507 -10.21,-3.1406 -2.97,-2.1211 -5.23,-5.2109 -6.82,-9.289 -1.59,-4.0391 -2.4,-8.7813 -2.4,-14.25 0,-5.4024 0.81,-10.0899 2.38,-14.1211 1.56,-4.0313 3.79,-7.1211 6.71,-9.2579 2.91,-2.1406 6.36,-3.2031 10.34,-3.2031 6,0 10.73,2.3516 14.31,7.0508 3.53,4.6992 5.32,11.2305 5.32,19.5313 z m 19.86,0 c 0,-6.1094 -0.91,-11.7891 -2.78,-17.0196 -1.81,-5.1406 -4.49,-9.6211 -7.94,-13.3633 -3.49,-3.7382 -7.65,-6.5273 -12.47,-8.5664 -4.84,-1.9922 -10.24,-2.9726 -16.3,-2.9726 -6.02,0 -11.41,0.9804 -16.18,3.0312 -4.76,2 -8.92,4.8907 -12.42,8.6485 -3.48,3.7695 -6.15,8.1601 -7.94,13.2812 -1.8,5.1602 -2.69,10.7695 -2.69,17 0,6.25 0.89,11.9688 2.69,17.1289 1.88,5.2305 4.48,9.6328 7.9,13.3398 3.46,3.672 7.6,6.512 12.46,8.492 4.94,2 10.31,3.008 16.18,3.008 6,0 11.4,-1.008 16.3,-3.039 4.88,-2 9.04,-4.898 12.52,-8.629 3.45,-3.7187 6.15,-8.1913 7.95,-13.3319 1.81,-5.1289 2.72,-10.7969 2.72,-17.0078"
         style="fill:#f2547a;fill-opacity:1;fill-rule:nonzero;stroke:none"
         id="path46" /><path
         d="M 2778.64,60.3711 V 43.1797 c 0,-4.1875 -0.94,-7.3399 -2.83,-9.4492 -1.89,-2.0508 -4.28,-3.1211 -7.2,-3.1211 -2.81,0 -5.18,1.0898 -7,3.1601 -1.83,2.1211 -2.73,5.25 -2.73,9.4102 v 57.4493 c 0,9.293 3.19,13.91 9.62,13.91 3.25,0 5.63,-1.109 7.11,-3.25 1.42,-2.16 2.18,-5.379 2.38,-9.598 2.35,4.219 4.8,7.438 7.29,9.598 2.49,2.141 5.79,3.25 9.93,3.25 4.18,0 8.2,-1.109 12.13,-3.25 3.89,-2.16 5.87,-5.047 5.87,-8.617 0,-2.524 -0.86,-4.6329 -2.52,-6.2423 -1.65,-1.6289 -3.45,-2.4805 -5.41,-2.4805 -0.71,0 -2.47,0.4805 -5.24,1.4414 -2.79,0.9102 -5.25,1.3907 -7.38,1.3907 -2.87,0 -5.24,-0.7696 -7.05,-2.3907 -1.85,-1.6093 -3.29,-3.9414 -4.29,-7.0508 -1.02,-3.1601 -1.75,-6.871 -2.11,-11.1992 -0.37,-4.2812 -0.57,-9.5195 -0.57,-15.7695"
         style="fill:#f2547a;fill-opacity:1;fill-rule:nonzero;stroke:none"
         id="path48" /><path
         d="m 2883.99,57.582 c 0,-5.7109 -1.32,-10.5703 -4.01,-14.6406 -2.67,-4.0703 -6.58,-7.1016 -11.78,-9.2226 -5.21,-2.0391 -11.5,-3.1094 -18.98,-3.1094 -7.04,0 -13.17,1.1328 -18.25,3.4219 -5.07,2.2578 -8.82,5.0781 -11.21,8.4804 -2.45,3.3789 -3.69,6.7969 -3.69,10.2071 0,2.2734 0.8,4.2226 2.38,5.832 1.53,1.6406 3.5,2.4101 5.84,2.4101 2.09,0 3.7,-0.5312 4.8,-1.5586 1.12,-1.121 2.15,-2.582 3.2,-4.4921 2.02,-3.6914 4.43,-6.4414 7.3,-8.25 2.78,-1.8399 6.64,-2.7383 11.56,-2.7383 3.94,0 7.19,0.9297 9.74,2.7695 2.52,1.8399 3.83,3.9375 3.83,6.3086 0,3.6602 -1.34,6.3086 -3.95,7.9492 -2.67,1.6992 -6.98,3.2813 -13.03,4.793 -6.8,1.7695 -12.36,3.6172 -16.64,5.5391 -4.27,1.9609 -7.73,4.539 -10.27,7.7109 -2.56,3.1172 -3.86,7.0586 -3.86,11.6992 0,4.1602 1.19,8.0703 3.57,11.7186 2.35,3.692 5.89,6.621 10.49,8.82 4.6,2.2 10.16,3.309 16.71,3.309 5.1,0 9.7,-0.57 13.8,-1.668 4.08,-1.109 7.53,-2.609 10.22,-4.461 2.72,-1.871 4.82,-3.93 6.24,-6.191 1.44,-2.2893 2.15,-4.5081 2.15,-6.6604 0,-2.3789 -0.75,-4.2773 -2.3,-5.8594 -1.53,-1.4375 -3.71,-2.207 -6.46,-2.207 -2.06,0 -3.78,0.5898 -5.23,1.8281 -1.39,1.1914 -3.05,2.9883 -4.87,5.3789 -1.5,2.0196 -3.25,3.6524 -5.3,4.8594 -2.03,1.1914 -4.79,1.8124 -8.25,1.8124 -3.58,0 -6.58,-0.781 -8.9,-2.3905 -2.38,-1.5703 -3.58,-3.5586 -3.58,-5.9414 0,-2.1797 0.88,-3.9375 2.59,-5.3282 1.77,-1.3906 4.09,-2.539 7.05,-3.4492 2.97,-0.9101 7.01,-2.0429 12.19,-3.3398 6.14,-1.5508 11.14,-3.4102 15.04,-5.5821 3.89,-2.1484 6.83,-4.7187 8.83,-7.6679 2.04,-2.9805 3.03,-6.3399 3.03,-10.0899"
         style="fill:#f2547a;fill-opacity:1;fill-rule:nonzero;stroke:none"
         id="path50" /><path
         d="m 2906.46,30.6094 c -3,0 -5.59,0.9804 -7.74,3.0312 -2.21,2 -3.28,4.8399 -3.28,8.4414 0,3.0664 1.02,5.7188 3.08,7.9375 2.08,2.211 4.65,3.3008 7.7,3.3008 3.03,0 5.64,-1.0898 7.74,-3.289 2.17,-2.1524 3.26,-4.8516 3.26,-7.9493 0,-3.5703 -1.09,-6.3828 -3.26,-8.4101 -2.1,-2.043 -4.61,-3.0625 -7.5,-3.0625"
         style="fill:#f2547a;fill-opacity:1;fill-rule:nonzero;stroke:none"
         id="path52" /><path
         d="m 2993.92,72.5313 c 0,8.3906 -1.79,14.9687 -5.34,19.6484 -3.55,4.6601 -8.31,7.0312 -14.28,7.0312 -3.88,0 -7.25,-1.0507 -10.21,-3.1406 -2.96,-2.1211 -5.22,-5.2109 -6.8,-9.289 -1.58,-4.0391 -2.39,-8.7813 -2.39,-14.25 0,-5.4024 0.76,-10.0899 2.33,-14.1211 1.61,-4.0313 3.83,-7.1211 6.76,-9.2579 2.91,-2.1406 6.34,-3.2031 10.31,-3.2031 5.97,0 10.73,2.3516 14.28,7.0508 3.55,4.6992 5.34,11.2305 5.34,19.5313 z m 19.87,0 c 0,-6.1094 -0.91,-11.7891 -2.77,-17.0196 -1.85,-5.1406 -4.48,-9.6211 -7.96,-13.3633 -3.51,-3.7382 -7.61,-6.5273 -12.46,-8.5664 -4.82,-1.9922 -10.25,-2.9726 -16.3,-2.9726 -5.99,0 -11.37,0.9804 -16.16,3.0312 -4.78,2 -8.9,4.8907 -12.4,8.6485 -3.55,3.7695 -6.19,8.1601 -8.03,13.2812 -1.76,5.1602 -2.67,10.7695 -2.67,17 0,6.25 0.91,11.9688 2.75,17.1289 1.87,5.2305 4.46,9.6328 7.87,13.3398 3.43,3.672 7.59,6.512 12.48,8.492 4.88,2 10.23,3.008 16.16,3.008 5.97,0 11.41,-1.008 16.3,-3.039 4.9,-2 9.06,-4.898 12.54,-8.629 3.46,-3.7187 6.1,-8.1913 7.93,-13.3319 1.81,-5.1289 2.72,-10.7969 2.72,-17.0078"
         style="fill:#f2547a;fill-opacity:1;fill-rule:nonzero;stroke:none"
         id="path54" /><path
         d="M 3049.01,60.3711 V 43.1797 c 0,-4.1875 -0.93,-7.3399 -2.82,-9.4492 -1.85,-2.0508 -4.28,-3.1211 -7.15,-3.1211 -2.89,0 -5.2,1.0898 -7.05,3.1601 -1.85,2.1211 -2.76,5.25 -2.76,9.4102 v 57.4493 c 0,9.293 3.25,13.91 9.65,13.91 3.29,0 5.63,-1.109 7.08,-3.25 1.42,-2.16 2.27,-5.379 2.44,-9.598 2.32,4.219 4.74,7.438 7.23,9.598 2.5,2.141 5.83,3.25 9.95,3.25 4.21,0 8.25,-1.109 12.12,-3.25 3.91,-2.16 5.88,-5.047 5.88,-8.617 0,-2.524 -0.84,-4.6329 -2.49,-6.2423 -1.69,-1.6289 -3.45,-2.4805 -5.43,-2.4805 -0.7,0 -2.44,0.4805 -5.21,1.4414 -2.79,0.9102 -5.24,1.3907 -7.39,1.3907 -2.88,0 -5.23,-0.7696 -7.11,-2.3907 -1.81,-1.6093 -3.24,-3.9414 -4.27,-7.0508 -0.99,-3.1601 -1.7,-6.871 -2.07,-11.1992 -0.39,-4.2812 -0.6,-9.5195 -0.6,-15.7695"
         style="fill:#f2547a;fill-opacity:1;fill-rule:nonzero;stroke:none"
         id="path56" /><path
         d="m 3106.12,73.25 c 0,-8.3516 1.76,-14.6914 5.28,-19 3.47,-4.25 8.03,-6.418 13.55,-6.418 3.26,0 6.41,0.9493 9.32,2.7891 2.93,1.8477 5.3,4.6094 7.15,8.3203 1.85,3.707 2.74,8.1875 2.74,13.4805 0,8.4179 -1.79,14.957 -5.33,19.6367 -3.54,4.7227 -8.21,7.0937 -14.01,7.0937 -5.63,0 -10.17,-2.3125 -13.56,-6.7617 -3.43,-4.5 -5.14,-10.8711 -5.14,-19.1406 z m 57.34,26.1797 V 39.4414 c 0,-6.8828 -0.75,-12.7617 -2.12,-17.6797 -1.41,-4.9726 -3.65,-9.0508 -6.74,-12.26951 -3.09,-3.22266 -7.16,-5.61328 -12.12,-7.17188 C 3137.47,0.789063 3131.24,0 3123.82,0 c -6.83,0 -12.93,0.949219 -18.26,2.94141 -5.37,2.05078 -9.52,4.57812 -12.41,7.75779 -2.89,3.1094 -4.35,6.3711 -4.35,9.7227 0,2.5078 0.8,4.5586 2.49,6.1367 1.62,1.6328 3.6,2.4102 5.92,2.4102 2.91,0 5.41,-1.3477 7.62,-4 1.07,-1.4102 2.18,-2.7696 3.29,-4.129 1.13,-1.3984 2.39,-2.6093 3.76,-3.5703 1.38,-1.0078 3.06,-1.7304 4.99,-2.2187 1.89,-0.4688 4.15,-0.7188 6.67,-0.7188 5.07,0 9.1,0.7578 11.9,2.2383 2.83,1.4805 4.81,3.5586 5.97,6.2305 1.08,2.668 1.8,5.5195 1.92,8.5703 0.23,3.1094 0.37,7.9609 0.51,14.75 -3.05,-4.4297 -6.61,-7.8125 -10.56,-10.1289 -3.98,-2.3203 -8.75,-3.4609 -14.21,-3.4609 -6.68,0 -12.46,1.7304 -17.38,5.289 -4.97,3.5195 -8.78,8.4414 -11.43,14.8203 -2.62,6.3282 -3.98,13.6602 -3.98,21.9883 0,6.2305 0.79,11.8399 2.44,16.832 1.58,4.9688 3.88,9.1911 6.92,12.6211 2.96,3.43 6.44,6.008 10.35,7.758 3.93,1.719 8.18,2.609 12.91,2.609 5.57,0 10.43,-1.14 14.53,-3.398 4.16,-2.211 7.93,-5.77 11.46,-10.539 v 2.777 c 0,3.602 0.88,6.34 2.54,8.383 1.68,1.93 3.87,2.93 6.52,2.93 3.82,0 6.35,-1.293 7.62,-3.891 1.24,-2.609 1.89,-6.379 1.89,-11.2813"
         style="fill:#f2547a;fill-opacity:1;fill-rule:nonzero;stroke:none"
         id="path58" /><path
         d="m 2306.19,300.43 h 29.34 c -2.07,-15.821 -8.56,-28.16 -19.34,-37.051 -9.97,-8.699 -22.05,-12.988 -36.16,-12.988 -19.16,0 -34.45,6.73 -45.87,20.16 -10.82,12.781 -16.22,29.281 -16.22,49.429 0,20.649 5.36,37.149 16.06,49.661 10.7,12.449 25.82,18.711 45.38,18.711 14.54,0 26.84,-3.942 36.81,-11.743 10.59,-8.437 17.05,-20.3 19.34,-35.468 h -29.34 c -2.54,13.238 -10.61,19.82 -24.37,19.82 -22.68,0 -34.04,-13.43 -34.04,-40.301 0,-12.601 2.92,-22.871 8.75,-30.89 5.83,-8.04 14.06,-12.059 24.66,-12.059 15.81,0 24.15,7.59 25,22.719 z m -115.49,18.511 c 0,-26.261 8.33,-48.492 24.95,-66.589 16.65,-18.11 37.03,-27.172 61.21,-27.172 24.07,0 44.46,9.062 61.08,27.172 16.67,18.097 24.94,40.328 24.94,66.589 0,26.239 -8.27,48.45 -24.94,66.559 -16.62,18.148 -37.01,27.191 -61.08,27.191 -24.18,0 -44.56,-9.043 -61.21,-27.191 -16.62,-18.109 -24.95,-40.32 -24.95,-66.559 z m -29.8,0 c 0,33.411 11.31,61.918 33.93,85.618 22.66,23.652 50,35.472 82.03,35.472 31.94,0 59.24,-11.82 81.92,-35.472 22.65,-23.7 33.98,-52.207 33.98,-85.618 0,-33.441 -11.33,-61.992 -33.98,-85.632 -22.68,-23.68 -49.98,-35.508 -81.92,-35.508 -32.03,0 -59.37,11.828 -82.03,35.508 -22.62,23.64 -33.93,52.191 -33.93,85.632"
         style="fill:#f2547a;fill-opacity:1;fill-rule:nonzero;stroke:none"
         id="path60" /><path
         d="m 2207.81,242.992 16.92,-14.344 124.33,159.672 -16.9,14.321 -124.35,-159.649"
         style="fill:#f2547a;fill-opacity:1;fill-rule:nonzero;stroke:none"
         id="path62" /><path
         d="m 2407.42,4415.43 c 1160.13,0 2100.6,-940.47 2100.6,-2100.61 0,-458.68 -147.1,-882.97 -396.61,-1228.43 H 703.445 c -249.492,345.46 -396.613,769.75 -396.613,1228.43 0,1160.14 940.458,2100.61 2100.588,2100.61"
         style="fill:#fff9ef;fill-opacity:1;fill-rule:evenodd;stroke:none"
         id="path64" /><path
         d="m 2407.42,1004.82 c 1253.76,0 2276.35,36.64 2276.35,81.57 0,44.93 -1022.59,81.57 -2276.35,81.57 -1253.73,0 -2276.307,-36.64 -2276.307,-81.57 0,-44.93 1022.577,-81.57 2276.307,-81.57"
         style="fill:#fef0d3;fill-opacity:1;fill-rule:evenodd;stroke:none"
         id="path66" /><path
         d="M 4101.91,3739.64 H 1294.16 l 384.25,-2653.25 h 2807.71 l -384.21,2653.25"
         style="fill:#fbc6a4;fill-opacity:1;fill-rule:evenodd;stroke:none"
         id="path68" /><path
         d="M 1294.16,3739.64 H 4101.91 L 3717.67,1086.39 H 909.945 l 384.215,2653.25"
         style="fill:#fef0d3;fill-opacity:1;fill-rule:evenodd;stroke:none"
         id="path70" /><path
         d="M 1294.16,3739.64 H 4101.91 L 4043.7,3337.66 H 1235.96 l 58.2,401.98"
         style="fill:#f89b7c;fill-opacity:1;fill-rule:evenodd;stroke:none"
         id="path72" /><path
         d="m 3142.78,2748.72 c 94.9,0 189.53,0 284.42,0 -11.57,-80.15 -23.18,-160.29 -34.75,-239.98 -94.89,0 -189.53,0 -284.14,0 11.3,79.69 22.9,160.06 34.47,239.98 z m 316.76,-337.01 c 94.9,0 189.53,0 284.42,0 -11.57,-79.93 -23.14,-159.83 -34.72,-239.99 -94.64,0 -189.54,0 -284.17,0 11.61,80.16 23.18,160.06 34.47,239.99 z m -365.27,0 c 94.61,0 189.23,0 284.13,0 -11.57,-79.93 -23.14,-159.83 -34.75,-239.99 -94.63,0 -189.52,0 -284.15,0 11.62,80.16 23.18,160.06 34.77,239.99 z m 316.76,-337.01 c 94.6,0 189.52,0 284.14,0 -11.57,-79.94 -23.15,-159.85 -34.71,-239.77 -94.63,0 -189.52,0 -284.14,0 11.56,79.92 23.14,159.83 34.71,239.77 z m -365.57,0 c 94.63,0 189.51,0 284.15,0 -11.57,-79.94 -23.15,-159.85 -34.72,-239.77 -94.63,0 -189.53,0 -284.15,0 11.57,79.92 23.14,159.83 34.72,239.77 z m 511.68,1010.82 c 94.9,0 189.25,0 284.42,0 -11.6,-80.15 -23.18,-160.08 -34.75,-239.99 -95.18,0 -189.52,0 -284.43,0 11.58,80.16 23.15,159.84 34.76,239.99 z m -365.56,0.21 c 94.9,0 189.51,0 284.42,-0.21 -11.62,-80.15 -23.18,-159.83 -34.76,-239.99 -94.89,0 -189.52,0.22 -284.41,0.22 11.58,79.94 23.14,159.62 34.75,239.98 z m 316.76,-337.22 c 94.91,0 189.52,0 284.41,0 -11.57,-79.94 -23.16,-160.08 -34.75,-239.99 -94.89,0 -189.51,0.22 -284.42,0.22 11.59,79.69 23.19,159.83 34.76,239.77 v 0"
         style="fill:#f89b7c;fill-opacity:1;fill-rule:evenodd;stroke:none"
         id="path74" /><path
         d="m 2411.93,2748.72 c 94.92,0 189.53,0 284.43,0 -11.58,-79.92 -23.2,-160.05 -34.77,-239.98 -94.89,0 -189.5,0 -284.41,0 11.57,79.93 23.18,160.06 34.75,239.98 z m -365.55,0 c 94.89,0 189.51,0 284.41,0 -11.58,-79.92 -23.18,-160.05 -34.75,-239.98 -94.91,0 -189.52,0 -284.42,0 11.58,79.93 23.18,160.06 34.76,239.98 z m -730.85,0 c 94.63,0 189.54,0 284.15,0 -11.59,-79.92 -23.21,-160.05 -34.77,-239.98 -94.62,0 -189.52,0 -284.14,0 11.57,79.93 23.18,160.06 34.76,239.98 z m 1413.16,-337.01 c 94.89,0 189.52,0 284.41,0 -11.57,-79.93 -23.12,-159.83 -34.73,-239.99 -94.9,0 -189.52,0 -284.42,0 11.6,80.16 23.17,160.06 34.74,239.99 z m -365.56,0 c 94.89,0 189.53,0 284.42,0 -11.57,-79.93 -23.15,-159.83 -34.76,-239.99 -94.9,0 -189.52,0 -284.41,0 11.61,80.16 23.18,160.06 34.75,239.99 z m -365.58,0 c 94.91,0 189.53,0 284.42,0 -11.55,-79.93 -23.12,-159.83 -34.73,-239.99 -94.91,0 -189.53,0 -284.43,0 11.61,80.16 23.18,160.06 34.74,239.99 z m -730.83,0 c 94.61,0 189.51,0 284.14,0 -11.58,-79.93 -23.16,-159.83 -34.77,-239.99 -94.62,0 -189.51,0 -284.13,0 11.6,80.16 23.17,160.06 34.76,239.99 z M 2679.89,2074.7 c 94.9,0 189.52,0 284.43,0 -11.59,-79.94 -23.16,-159.85 -34.72,-239.77 -94.89,0 -189.53,0 -284.43,0 11.58,79.92 23.15,159.83 34.72,239.77 z m -365.57,0 c 94.9,0 189.53,0 284.43,0 -11.57,-79.94 -23.14,-159.85 -34.73,-239.77 -94.9,0 -189.53,0 -284.42,0 11.57,79.92 23.15,159.83 34.72,239.77 z m -365.57,0 c 94.9,0 189.54,0 284.42,0 -11.57,-79.94 -23.15,-159.85 -34.71,-239.77 -94.91,0 -189.8,0 -284.42,-0.22 11.56,80.14 23.13,160.05 34.71,239.99 z m -730.85,0 c 94.34,0 189.52,0 283.86,0 -11.59,-79.94 -23.15,-159.85 -34.71,-239.99 -94.36,0 -189.55,0 -283.89,0 11.58,79.92 23.16,160.05 34.74,239.99 z m 1413.18,-337.01 c 94.91,0 189.53,0 284.44,0 -11.57,-79.92 -23.16,-159.85 -34.72,-239.77 -94.9,0 -189.53,0 -284.43,0 11.57,79.92 23.16,159.85 34.71,239.77 z m -365.56,0 c 94.89,0 189.51,0 284.43,0 -11.58,-79.92 -23.15,-159.85 -34.73,-239.77 -94.91,0 -189.52,0 -284.43,0 11.58,79.92 23.16,159.85 34.73,239.77 z m -365.57,-0.22 c 94.61,0 189.52,0.22 284.43,0.22 -11.58,-79.92 -23.15,-159.85 -34.74,-239.77 -94.88,0 -189.8,0 -284.42,0 11.57,79.92 23.15,159.85 34.73,239.55 z m -730.87,0 c 94.34,0 189.25,0 283.87,0 -11.58,-79.7 -23.16,-159.85 -34.73,-239.55 -94.63,0 -189.52,0 -283.86,-0.23 11.58,79.93 23.15,159.84 34.72,239.78 z m 365.29,0 c 94.63,0 189.81,0 284.15,0 -11.57,-79.7 -23.15,-159.63 -34.74,-239.55 -94.33,0 -189.5,0 -284.14,0 11.58,79.7 23.15,159.85 34.73,239.55 z m 48.8,337.23 c 94.9,0 189.81,0 284.44,0 -11.58,-79.94 -23.15,-159.85 -35.02,-239.99 -94.32,0 -189.5,0 -284.13,0 11.58,80.14 23.15,160.05 34.71,239.99 z m 48.83,337.01 c 94.91,0 189.8,0 284.41,0 -11.57,-79.93 -23.13,-159.83 -34.74,-239.99 -94.62,0 -189.53,0 -284.44,0 11.61,80.16 23.2,160.06 34.77,239.99 z m 1194.31,674.02 c 94.88,0 189.24,0 284.41,0 -11.61,-80.36 -23.19,-160.04 -34.75,-239.98 -95.18,0 -189.52,0 -284.42,0 11.57,79.94 23.15,159.86 34.76,239.98 z m -365.58,0 c 94.91,0 189.52,0 284.43,0 -11.61,-80.12 -23.18,-160.04 -34.76,-239.98 -94.9,0 -189.51,0 -284.42,0 11.57,79.94 23.15,159.86 34.75,239.98 z m -779.9,-337.01 c 94.88,0 189.79,0 284.41,0 -11.58,-79.92 -23.18,-160.05 -34.76,-239.98 -94.64,0 -189.54,0 -284.43,0 11.57,79.93 23.19,160.06 34.78,239.98 z m 1096.68,0 c 94.89,0 189.23,0 284.41,0 -11.58,-79.92 -23.19,-160.29 -34.75,-239.98 -94.91,0 -189.52,0 -284.43,0 11.57,79.93 23.18,160.06 34.77,239.98 v 0"
         style="fill:#ffffff;fill-opacity:1;fill-rule:evenodd;stroke:none"
         id="path76" /><path
         d="m 2418.79,2707.61 81.57,-108.61 200.41,160.48 24.02,-31.97 -240.35,-192.44 -105.57,140.59 z m -365.87,0 c 27.18,-36.19 54.39,-72.4 81.57,-108.61 66.81,53.5 133.61,106.99 200.41,160.48 8.01,-10.66 16.01,-21.31 24.02,-31.97 -80.12,-64.15 -160.23,-128.28 -240.34,-192.44 -35.2,46.87 -70.39,93.72 -105.59,140.59 13.31,10.64 26.61,21.3 39.93,31.95 z m -731.73,0 81.58,-108.61 200.39,160.48 24.02,-31.97 -240.31,-192.44 -105.61,140.59 z m 365.88,0 c 27.18,-36.19 54.37,-72.4 81.55,-108.61 66.81,53.5 133.62,106.99 200.43,160.48 7.99,-10.66 15.98,-21.31 24,-31.97 -80.11,-64.15 -160.21,-128.28 -240.33,-192.44 -35.19,46.87 -70.39,93.72 -105.59,140.59 13.3,10.64 26.62,21.3 39.94,31.95 v 0"
         style="fill:#f2547a;fill-opacity:1;fill-rule:evenodd;stroke:none"
         id="path78" /><path
         d="m 723.563,2390.62 c 440.797,0 833.727,-366.02 876.567,-806.83 42.84,-440.81 -308.99,-497.4 -749.786,-497.4 -440.817,0 -803.6682,56.59 -846.51587,497.4 C -39.0234,2024.6 282.75,2390.62 723.563,2390.62"
         style="fill:#f2547a;fill-opacity:1;fill-rule:evenodd;stroke:none"
         id="path80" /><path
         d="m 620.84,1874.3 h 769.35 c 75.9,0 141.07,-37.63 179.02,-103.37 l 309.87,-536.71 -85.34,-147.83 -473.32,473.33 H 874.215 c -199.125,0 -266.293,174.27 -253.375,314.58"
         style="fill:#63527b;fill-opacity:1;fill-rule:evenodd;stroke:none"
         id="path82" /><path
         d="m 1793.74,1086.39 h 302.86 l -9.64,53.08 c -8.64,47.48 -45.82,84.65 -93.29,93.29 l -114.59,1.46 -85.34,-147.83"
         style="fill:#be5582;fill-opacity:1;fill-rule:evenodd;stroke:none"
         id="path84" /><path
         d="m 801.836,1874.3 679.534,210.11 c 47.9,14.02 99.62,0.95 135.06,-34.17 35.45,-35.12 49.02,-86.71 35.45,-134.72 -15.1,-53.41 -42.68,-102.47 -80.42,-143.15 -26.14,-28.17 -65.71,-39.57 -102.82,-29.61 -37.11,9.94 -65.69,39.59 -74.24,77.06 -4.09,17.92 -4.09,36.55 0,54.48 H 801.836"
         style="fill:#4a3c5e;fill-opacity:1;fill-rule:evenodd;stroke:none"
         id="path86" /><path
         d="m 1797.74,1924.82 v 0 c 17.01,-54.94 -14,-113.8 -68.93,-130.81 l -135.3,-41.91 c -54.94,-17.01 -113.78,14 -130.8,68.94 v 0 c -17.01,54.92 14.01,113.77 68.94,130.78 l 135.29,41.93 c 54.93,17.01 113.78,-14.01 130.8,-68.93"
         style="fill:#be5582;fill-opacity:1;fill-rule:evenodd;stroke:none"
         id="path88" /><path
         d="m 620.84,1874.3 -173.91,448.43 c -31.914,82.3 7.953,218.11 96.183,221.2 42.625,1.5 85.985,-7.64 127.235,-27.67 l 36.062,-17.54 c 114.836,-55.81 185.621,-160.84 194.266,-288.23 L 923.473,1874.3 H 620.84"
         style="fill:#be5582;fill-opacity:1;fill-rule:evenodd;stroke:none"
         id="path90" /><path
         d="m 519.766,2539.79 77.613,388.8 210.324,-44.28 -23.988,-212.18 c -8.953,-66.9 -79.043,-107.36 -141.469,-81.7 l -5.566,-31.24 91.445,-71.9 c -53.98,-55.85 -148.379,54.12 -208.359,52.5"
         style="fill:#fbc6a4;fill-opacity:1;fill-rule:evenodd;stroke:none"
         id="path92" /><path
         d="m 720.426,2860.25 82.64,-17.09 c 97.864,-20.63 138.227,151.89 -13.304,151.88 -94.188,0 -159.723,-21.32 -198.02,-40.48 l -19.519,6.2 c -10.297,3.27 -21.563,0.51 -29.211,-7.12 -7.637,-7.64 -10.379,-18.91 -7.11,-29.2 l 5.871,-274.39 100.586,118.41 62.895,11.56 -7.223,48.45 c -2.234,14.88 8.817,34.6 22.395,31.78"
         style="fill:#63527b;fill-opacity:1;fill-rule:evenodd;stroke:none"
         id="path94" /><path
         d="m 634.609,2726.51 c 19.629,0 35.633,22.87 35.633,50.92 0,28.02 -16.004,50.9 -35.633,50.9 -19.632,0 -35.632,-22.88 -35.632,-50.9 0,-28.05 16,-50.92 35.632,-50.92"
         style="fill:#fbc6a4;fill-opacity:1;fill-rule:evenodd;stroke:none"
         id="path96" /><path
         d="m 547.359,2249.37 151.219,-234.73 c 22.25,-34.51 59.973,-52.02 100.699,-46.74 l 367.503,47.75 -18.81,71.28 -340.072,21.44 -93.078,231.55 -167.461,-90.55"
         style="fill:#fbc6a4;fill-opacity:1;fill-rule:evenodd;stroke:none"
         id="path98" /><path
         d="m 1147.97,2086.93 29.37,3.02 c 47.24,4.85 94.61,-7.85 133.1,-35.69 l -128.77,-45.65 -14.89,7.04 -71.87,17.52 53.06,53.76"
         style="fill:#fbc6a4;fill-opacity:1;fill-rule:evenodd;stroke:none"
         id="path100" /><path
         d="m 1141.25,1979.24 c -7.19,-2.2 -14.8,1.82 -17.02,9.02 -2.21,7.19 1.83,14.82 9.02,17.02 l 267.67,82.76 45.5,290.28 c 1.15,7.42 8.1,12.52 15.54,11.36 7.42,-1.12 12.5,-8.1 11.37,-15.52 l -46.73,-298.03 c -0.55,-5.26 -4.16,-9.95 -9.54,-11.61 l -275.81,-85.28"
         style="fill:#63527b;fill-opacity:1;fill-rule:evenodd;stroke:none"
         id="path102" /><path
         d="m 752.426,1962.81 c 16.148,0 29.312,13.18 29.312,29.31 0,16.14 -13.164,29.31 -29.312,29.31 -16.125,0 -29.313,-13.17 -29.313,-29.31 0,-16.13 13.188,-29.31 29.313,-29.31"
         style="fill:#fbc6a4;fill-opacity:1;fill-rule:evenodd;stroke:none"
         id="path104" /></g></g></svg>
